<?xml version="1.0" encoding="UTF-8" standalone="no"?>
<!DOCTYPE svg PUBLIC "-//W3C//DTD SVG 1.1//EN"
 "http://www.w3.org/Graphics/SVG/1.1/DTD/svg11.dtd">
<!-- Generated by graphviz version 2.38.0 (20140413.2041)
 -->
<!-- Title: %3 Pages: 1 -->
<svg width="436pt" height="305pt"
 viewBox="0.00 0.00 435.59 305.00" xmlns="http://www.w3.org/2000/svg" xmlns:xlink="http://www.w3.org/1999/xlink">
<g id="graph0" class="graph" transform="scale(1 1) rotate(0) translate(4 301)">
<title>%3</title>
<polygon fill="white" stroke="none" points="-4,4 -4,-301 431.592,-301 431.592,4 -4,4"/>
<!-- zed -->
<g id="node1" class="node"><title>zed</title>
<ellipse fill="white" stroke="white" cx="158.592" cy="-279" rx="126.978" ry="18"/>
<text text-anchor="middle" x="158.592" y="-275.3" font-family="Times New Roman,serif" font-size="14.00">/camera/zed/zed_wrapper_node</text>
</g>
<!-- cone_thresholder -->
<g id="node2" class="node"><title>cone_thresholder</title>
<ellipse fill="white" stroke="white" cx="93.5917" cy="-192" rx="93.6835" ry="18"/>
<text text-anchor="middle" x="93.5917" y="-188.3" font-family="Times New Roman,serif" font-size="14.00">/lab4/cone_thresholder</text>
</g>
<!-- zed&#45;&gt;cone_thresholder -->
<g id="edge1" class="edge"><title>zed&#45;&gt;cone_thresholder</title>
<path fill="none" stroke="black" d="M83.2637,-264.439C72.7982,-259.37 63.3373,-252.446 56.5917,-243 50.4416,-234.388 54.4224,-225.042 61.6788,-216.786"/>
<polygon fill="black" stroke="black" points="64.3631,-219.057 69.0671,-209.563 59.4697,-214.051 64.3631,-219.057"/>
<text text-anchor="middle" x="152.092" y="-231.8" font-family="Times New Roman,serif" font-size="14.00">/camera/zed/rgb/image_rect_color</text>
</g>
<!-- cone_locator -->
<g id="node3" class="node"><title>cone_locator</title>
<ellipse fill="white" stroke="white" cx="189.592" cy="-105" rx="78.7863" ry="18"/>
<text text-anchor="middle" x="189.592" y="-101.3" font-family="Times New Roman,serif" font-size="14.00">/lab4/cone_locator</text>
</g>
<!-- zed&#45;&gt;cone_locator -->
<g id="edge2" class="edge"><title>zed&#45;&gt;cone_locator</title>
<path fill="none" stroke="black" d="M223.589,-263.288C233.055,-258.36 241.609,-251.782 247.592,-243 273.116,-205.535 269.877,-180.477 247.592,-141 244.48,-135.489 240.114,-130.748 235.159,-126.697"/>
<polygon fill="black" stroke="black" points="237.16,-123.826 226.981,-120.888 233.107,-129.533 237.16,-123.826"/>
<text text-anchor="middle" x="346.092" y="-188.3" font-family="Times New Roman,serif" font-size="14.00">/camera/zed/rgb/camera_info</text>
</g>
<!-- cone_thresholder&#45;&gt;cone_locator -->
<g id="edge3" class="edge"><title>cone_thresholder&#45;&gt;cone_locator</title>
<path fill="none" stroke="black" d="M109.27,-174.215C118.866,-164.228 131.572,-151.498 143.592,-141 148.353,-136.841 153.557,-132.61 158.697,-128.593"/>
<polygon fill="black" stroke="black" points="160.841,-131.36 166.649,-122.5 156.583,-125.804 160.841,-131.36"/>
<text text-anchor="middle" x="195.592" y="-144.8" font-family="Times New Roman,serif" font-size="14.00">/tokyo/cone_mask</text>
</g>
<!-- swerve_driver -->
<g id="node4" class="node"><title>swerve_driver</title>
<ellipse fill="white" stroke="white" cx="189.592" cy="-18" rx="81.7856" ry="18"/>
<text text-anchor="middle" x="189.592" y="-14.3" font-family="Times New Roman,serif" font-size="14.00">/lab4/swerve_driver</text>
</g>
<!-- cone_locator&#45;&gt;swerve_driver -->
<g id="edge4" class="edge"><title>cone_locator&#45;&gt;swerve_driver</title>
<path fill="none" stroke="black" d="M189.592,-86.799C189.592,-75.1626 189.592,-59.5479 189.592,-46.2368"/>
<polygon fill="black" stroke="black" points="193.092,-46.1754 189.592,-36.1754 186.092,-46.1755 193.092,-46.1754"/>
<text text-anchor="middle" x="223.092" y="-57.8" font-family="Times New Roman,serif" font-size="14.00">/tokyo/cone</text>
</g>
</g>
</svg>
