<?xml version="1.0" encoding="UTF-8" standalone="no"?>
<!DOCTYPE svg PUBLIC "-//W3C//DTD SVG 1.1//EN"
 "http://www.w3.org/Graphics/SVG/1.1/DTD/svg11.dtd">
<!-- Generated by graphviz version 2.38.0 (20140413.2041)
 -->
<!-- Title: G Pages: 1 -->
<svg width="422pt" height="356pt"
 viewBox="0.00 0.00 422.00 356.00" xmlns="http://www.w3.org/2000/svg" xmlns:xlink="http://www.w3.org/1999/xlink">
<g id="graph0" class="graph" transform="scale(1 1) rotate(0) translate(4 352)">
<title>G</title>
<polygon fill="white" stroke="none" points="-4,4 -4,-352 418,-352 418,4 -4,4"/>
<g id="clust1" class="cluster"><title>cluster_0</title>
<polygon fill="lightgrey" stroke="lightgrey" points="8,-8 8,-340 406,-340 406,-8 8,-8"/>
<text text-anchor="middle" x="207" y="-324.8" font-family="Times,serif" font-size="14.00">Image Processing Software</text>
</g>
<!-- zed -->
<g id="node1" class="node"><title>zed</title>
<ellipse fill="white" stroke="white" cx="186" cy="-292" rx="122.6" ry="18"/>
<text text-anchor="middle" x="186" y="-287.8" font-family="Times,serif" font-size="14.00">/camera/zed/zed_wrapper_node</text>
</g>
<!-- cone_thresholder -->
<g id="node2" class="node"><title>cone_thresholder</title>
<ellipse fill="white" stroke="white" cx="107" cy="-206" rx="91.2894" ry="18"/>
<text text-anchor="middle" x="107" y="-201.8" font-family="Times,serif" font-size="14.00">/lab4/cone_thresholder</text>
</g>
<!-- zed&#45;&gt;cone_thresholder -->
<g id="edge1" class="edge"><title>zed&#45;&gt;cone_thresholder</title>
<path fill="none" stroke="black" d="M97.18,-279.515C70.2212,-274.091 45.516,-266.451 37.2383,-256 27.8666,-244.168 37.0333,-233.986 51.4552,-226.018"/>
<polygon fill="black" stroke="black" points="53.0286,-229.145 60.4534,-221.587 49.936,-222.865 53.0286,-229.145"/>
<text text-anchor="middle" x="133.881" y="-244.8" font-family="Times,serif" font-size="14.00">/camera/zed/rgb/image_rect_color</text>
</g>
<!-- cone_locator -->
<g id="node3" class="node"><title>cone_locator</title>
<ellipse fill="white" stroke="white" cx="179" cy="-120" rx="75.8294" ry="18"/>
<text text-anchor="middle" x="179" y="-115.8" font-family="Times,serif" font-size="14.00">/lab4/cone_locator</text>
</g>
<!-- zed&#45;&gt;cone_locator -->
<g id="edge2" class="edge"><title>zed&#45;&gt;cone_locator</title>
<path fill="none" stroke="black" d="M213.894,-274.352C219.981,-269.281 225.611,-263.128 229,-256 248.083,-215.861 249.525,-195.421 229,-156 226.431,-151.066 222.813,-146.683 218.684,-142.834"/>
<polygon fill="black" stroke="black" points="220.794,-140.039 210.816,-136.477 216.395,-145.484 220.794,-140.039"/>
<text text-anchor="middle" x="324.884" y="-201.8" font-family="Times,serif" font-size="14.00">/camera/zed/rgb/camera_info</text>
</g>
<!-- cone_thresholder&#45;&gt;cone_locator -->
<g id="edge3" class="edge"><title>cone_thresholder&#45;&gt;cone_locator</title>
<path fill="none" stroke="black" d="M111.015,-187.793C114.001,-177.736 118.874,-165.245 126.352,-156 130.383,-151.016 135.315,-146.484 140.528,-142.458"/>
<polygon fill="black" stroke="black" points="142.724,-145.191 148.86,-136.554 138.677,-139.48 142.724,-145.191"/>
<text text-anchor="middle" x="178.324" y="-158.8" font-family="Times,serif" font-size="14.00">/tokyo/cone_mask</text>
</g>
<!-- swerve_driver -->
<g id="node4" class="node"><title>swerve_driver</title>
<ellipse fill="white" stroke="white" cx="179" cy="-34" rx="80.6576" ry="18"/>
<text text-anchor="middle" x="179" y="-29.8" font-family="Times,serif" font-size="14.00">/lab4/swerve_driver</text>
</g>
<!-- cone_locator&#45;&gt;swerve_driver -->
<g id="edge4" class="edge"><title>cone_locator&#45;&gt;swerve_driver</title>
<path fill="none" stroke="black" d="M179,-101.595C179,-90.2572 179,-75.2271 179,-62.3153"/>
<polygon fill="black" stroke="black" points="182.5,-62.0951 179,-52.0952 175.5,-62.0952 182.5,-62.0951"/>
<text text-anchor="middle" x="212.048" y="-72.8" font-family="Times,serif" font-size="14.00">/tokyo/cone</text>
</g>
</g>
</svg>
