<?xml version="1.0" encoding="UTF-8" standalone="no"?>
<!DOCTYPE svg PUBLIC "-//W3C//DTD SVG 1.1//EN"
 "http://www.w3.org/Graphics/SVG/1.1/DTD/svg11.dtd">
<!-- Generated by graphviz version 2.38.0 (20140413.2041)
 -->
<!-- Title: graphname Pages: 1 -->
<svg width="1203pt" height="74pt"
 viewBox="0.00 0.00 1203.13 74.00" xmlns="http://www.w3.org/2000/svg" xmlns:xlink="http://www.w3.org/1999/xlink">
<g id="graph0" class="graph" transform="scale(1 1) rotate(0) translate(4 70)">
<title>graphname</title>
<polygon fill="white" stroke="none" points="-4,4 -4,-70 1199.13,-70 1199.13,4 -4,4"/>
<!-- zed -->
<g id="node1" class="node"><title>zed</title>
<ellipse fill="none" stroke="black" cx="126.739" cy="-18" rx="126.978" ry="18"/>
<text text-anchor="middle" x="126.739" y="-14.3" font-family="Times New Roman,serif" font-size="14.00">/camera/zed/zed_wrapper_node</text>
</g>
<!-- cone_thresholder -->
<g id="node2" class="node"><title>cone_thresholder</title>
<ellipse fill="none" stroke="black" cx="557.969" cy="-48" rx="97.4827" ry="18"/>
<text text-anchor="middle" x="557.969" y="-44.3" font-family="Times New Roman,serif" font-size="14.00">/lab4a/cone_thresholder</text>
</g>
<!-- zed&#45;&gt;cone_thresholder -->
<g id="edge1" class="edge"><title>zed&#45;&gt;cone_thresholder</title>
<path fill="none" stroke="black" d="M240.795,-25.9018C307.635,-30.5734 391.556,-36.4389 456.138,-40.9527"/>
<polygon fill="black" stroke="black" points="456.112,-44.4593 466.332,-41.6651 456.6,-37.4763 456.112,-44.4593"/>
<text text-anchor="middle" x="356.978" y="-42.8" font-family="Times New Roman,serif" font-size="14.00">/camera/zed/rgb/image_rect_color</text>
</g>
<!-- cone_locator -->
<g id="node3" class="node"><title>cone_locator</title>
<ellipse fill="none" stroke="black" cx="858.003" cy="-18" rx="82.5854" ry="18"/>
<text text-anchor="middle" x="858.003" y="-14.3" font-family="Times New Roman,serif" font-size="14.00">/lab4a/cone_locator</text>
</g>
<!-- zed&#45;&gt;cone_locator -->
<g id="edge2" class="edge"><title>zed&#45;&gt;cone_locator</title>
<path fill="none" stroke="black" d="M245.909,-11.7696C352.868,-6.97369 514.737,-1.81434 655.46,-6 692.77,-7.10974 733.913,-9.37262 769.245,-11.6373"/>
<polygon fill="black" stroke="black" points="769.323,-15.1496 779.529,-12.3069 769.778,-8.16444 769.323,-15.1496"/>
<text text-anchor="middle" x="557.969" y="-9.8" font-family="Times New Roman,serif" font-size="14.00">/camera/zed/rgb/camera_info</text>
</g>
<!-- cone_thresholder&#45;&gt;cone_locator -->
<g id="edge3" class="edge"><title>cone_thresholder&#45;&gt;cone_locator</title>
<path fill="none" stroke="black" d="M643.975,-39.4434C684.262,-35.3881 732.256,-30.557 772.481,-26.508"/>
<polygon fill="black" stroke="black" points="772.931,-29.9804 782.531,-25.4964 772.23,-23.0156 772.931,-29.9804"/>
<text text-anchor="middle" x="715.46" y="-40.8" font-family="Times New Roman,serif" font-size="14.00">/tokyo/cone_mask</text>
</g>
<!-- swerve_driver -->
<g id="node4" class="node"><title>swerve_driver</title>
<ellipse fill="none" stroke="black" cx="1109.34" cy="-18" rx="85.5853" ry="18"/>
<text text-anchor="middle" x="1109.34" y="-14.3" font-family="Times New Roman,serif" font-size="14.00">/lab4a/swerve_driver</text>
</g>
<!-- cone_locator&#45;&gt;swerve_driver -->
<g id="edge4" class="edge"><title>cone_locator&#45;&gt;swerve_driver</title>
<path fill="none" stroke="black" d="M940.645,-18C963.883,-18 989.396,-18 1013.35,-18"/>
<polygon fill="black" stroke="black" points="1013.52,-21.5001 1023.52,-18 1013.52,-14.5001 1013.52,-21.5001"/>
<text text-anchor="middle" x="982.046" y="-21.8" font-family="Times New Roman,serif" font-size="14.00">/tokyo/cone</text>
</g>
</g>
</svg>
