<?xml version="1.0" encoding="UTF-8" standalone="no"?>
<!DOCTYPE svg PUBLIC "-//W3C//DTD SVG 1.1//EN"
 "http://www.w3.org/Graphics/SVG/1.1/DTD/svg11.dtd">
<!-- Generated by graphviz version 2.38.0 (20140413.2041)
 -->
<!-- Title: lab4 Pages: 1 -->
<svg width="1180pt" height="74pt"
 viewBox="0.00 0.00 1179.73 74.00" xmlns="http://www.w3.org/2000/svg" xmlns:xlink="http://www.w3.org/1999/xlink">
<g id="graph0" class="graph" transform="scale(1 1) rotate(0) translate(4 70)">
<title>lab4</title>
<polygon fill="white" stroke="none" points="-4,4 -4,-70 1175.73,-70 1175.73,4 -4,4"/>
<!-- zed -->
<g id="node1" class="node"><title>zed</title>
<ellipse fill="none" stroke="black" cx="126.739" cy="-18" rx="126.978" ry="18"/>
<text text-anchor="middle" x="126.739" y="-14.3" font-family="Times New Roman,serif" font-size="14.00">/camera/zed/zed_wrapper_node</text>
</g>
<!-- cone_thresholder -->
<g id="node2" class="node"><title>cone_thresholder</title>
<ellipse fill="none" stroke="black" cx="554.069" cy="-48" rx="93.6835" ry="18"/>
<text text-anchor="middle" x="554.069" y="-44.3" font-family="Times New Roman,serif" font-size="14.00">/lab4/cone_thresholder</text>
</g>
<!-- zed&#45;&gt;cone_thresholder -->
<g id="edge1" class="edge"><title>zed&#45;&gt;cone_thresholder</title>
<path fill="none" stroke="black" d="M240.603,-25.9607C307.648,-30.6896 391.809,-36.6258 455.89,-41.1457"/>
<polygon fill="black" stroke="black" points="455.775,-44.6462 465.997,-41.8585 456.268,-37.6635 455.775,-44.6462"/>
<text text-anchor="middle" x="356.978" y="-43.8" font-family="Times New Roman,serif" font-size="14.00">/camera/zed/rgb/image_rect_color</text>
</g>
<!-- cone_locator -->
<g id="node3" class="node"><title>cone_locator</title>
<ellipse fill="none" stroke="black" cx="846.304" cy="-18" rx="78.7863" ry="18"/>
<text text-anchor="middle" x="846.304" y="-14.3" font-family="Times New Roman,serif" font-size="14.00">/lab4/cone_locator</text>
</g>
<!-- zed&#45;&gt;cone_locator -->
<g id="edge2" class="edge"><title>zed&#45;&gt;cone_locator</title>
<path fill="none" stroke="black" d="M245.71,-11.6899C351.098,-6.90805 509.696,-1.81555 647.661,-6 684.876,-7.12873 725.979,-9.45034 761.018,-11.7534"/>
<polygon fill="black" stroke="black" points="760.997,-15.2597 771.208,-12.4337 761.463,-8.27525 760.997,-15.2597"/>
<text text-anchor="middle" x="554.069" y="-9.8" font-family="Times New Roman,serif" font-size="14.00">/camera/zed/rgb/camera_info</text>
</g>
<!-- cone_thresholder&#45;&gt;cone_locator -->
<g id="edge3" class="edge"><title>cone_thresholder&#45;&gt;cone_locator</title>
<path fill="none" stroke="black" d="M637.075,-39.5235C676.86,-35.4111 724.505,-30.4864 764.173,-26.386"/>
<polygon fill="black" stroke="black" points="764.754,-29.8448 774.341,-25.3351 764.034,-22.8819 764.754,-29.8448"/>
<text text-anchor="middle" x="707.661" y="-40.8" font-family="Times New Roman,serif" font-size="14.00">/tokyo/cone_mask</text>
</g>
<!-- swerve_driver -->
<g id="node4" class="node"><title>swerve_driver</title>
<ellipse fill="none" stroke="black" cx="1089.84" cy="-18" rx="81.7856" ry="18"/>
<text text-anchor="middle" x="1089.84" y="-14.3" font-family="Times New Roman,serif" font-size="14.00">/lab4/swerve_driver</text>
</g>
<!-- cone_locator&#45;&gt;swerve_driver -->
<g id="edge4" class="edge"><title>cone_locator&#45;&gt;swerve_driver</title>
<path fill="none" stroke="black" d="M925.057,-18C948.225,-18 973.823,-18 997.762,-18"/>
<polygon fill="black" stroke="black" points="997.908,-21.5001 1007.91,-18 997.908,-14.5001 997.908,-21.5001"/>
<text text-anchor="middle" x="966.447" y="-21.8" font-family="Times New Roman,serif" font-size="14.00">/tokyo/cone</text>
</g>
</g>
</svg>
