<?xml version="1.0" encoding="UTF-8" standalone="no"?>
<!DOCTYPE svg PUBLIC "-//W3C//DTD SVG 1.1//EN"
 "http://www.w3.org/Graphics/SVG/1.1/DTD/svg11.dtd">
<!-- Generated by graphviz version 2.38.0 (20140413.2041)
 -->
<!-- Title: G Pages: 1 -->
<svg width="819pt" height="462pt"
 viewBox="0.00 0.00 819.22 462.00" xmlns="http://www.w3.org/2000/svg" xmlns:xlink="http://www.w3.org/1999/xlink">
<g id="graph0" class="graph" transform="scale(1 1) rotate(0) translate(4 458)">
<title>G</title>
<polygon fill="white" stroke="none" points="-4,4 -4,-458 815.222,-458 815.222,4 -4,4"/>
<g id="clust1" class="cluster"><title>cluster_0</title>
<polygon fill="lightgrey" stroke="lightgrey" points="8,-94 8,-446 406,-446 406,-94 8,-94"/>
<text text-anchor="middle" x="207" y="-430.8" font-family="Times,serif" font-size="14.00">Image Processing</text>
</g>
<g id="clust2" class="cluster"><title>cluster_1</title>
<polygon fill="lightblue" stroke="lightblue" points="414,-8 414,-168 708,-168 708,-8 414,-8"/>
<text text-anchor="middle" x="561" y="-152.8" font-family="Times,serif" font-size="14.00">Propagation Delay Analyzer</text>
</g>
<!-- zed -->
<g id="node1" class="node"><title>zed</title>
<ellipse fill="white" stroke="white" cx="172" cy="-398" rx="122.6" ry="18"/>
<text text-anchor="middle" x="172" y="-393.8" font-family="Times,serif" font-size="14.00">/camera/zed/zed_wrapper_node</text>
</g>
<!-- cone_thresholder -->
<g id="node2" class="node"><title>cone_thresholder</title>
<ellipse fill="white" stroke="white" cx="307" cy="-312" rx="91.2894" ry="18"/>
<text text-anchor="middle" x="307" y="-307.8" font-family="Times,serif" font-size="14.00">/lab4/cone_thresholder</text>
</g>
<!-- zed&#45;&gt;cone_thresholder -->
<g id="edge1" class="edge"><title>zed&#45;&gt;cone_thresholder</title>
<path fill="none" stroke="black" d="M198.672,-380.404C219.701,-367.319 249.2,-348.965 272.105,-334.712"/>
<polygon fill="black" stroke="black" points="274.202,-337.53 280.843,-329.275 270.503,-331.587 274.202,-337.53"/>
<text text-anchor="middle" x="343.881" y="-350.8" font-family="Times,serif" font-size="14.00">/camera/zed/rgb/image_rect_color</text>
</g>
<!-- cone_locator -->
<g id="node3" class="node"><title>cone_locator</title>
<ellipse fill="white" stroke="white" cx="212" cy="-226" rx="75.8294" ry="18"/>
<text text-anchor="middle" x="212" y="-221.8" font-family="Times,serif" font-size="14.00">/lab4/cone_locator</text>
</g>
<!-- zed&#45;&gt;cone_locator -->
<g id="edge2" class="edge"><title>zed&#45;&gt;cone_locator</title>
<path fill="none" stroke="black" d="M122.988,-381.382C76.3919,-363.807 17.0207,-332.606 43.2314,-294 64.1829,-263.14 101.819,-246.494 136.242,-237.515"/>
<polygon fill="black" stroke="black" points="137.427,-240.829 146.323,-235.074 135.78,-234.026 137.427,-240.829"/>
<text text-anchor="middle" x="125.884" y="-307.8" font-family="Times,serif" font-size="14.00">/camera/zed/rgb/camera_info</text>
</g>
<!-- cone_thresholder&#45;&gt;cone_locator -->
<g id="edge3" class="edge"><title>cone_thresholder&#45;&gt;cone_locator</title>
<path fill="none" stroke="black" d="M287.775,-294.001C273.647,-281.509 254.273,-264.378 238.651,-250.565"/>
<polygon fill="black" stroke="black" points="240.682,-247.689 230.872,-243.687 236.045,-252.933 240.682,-247.689"/>
<text text-anchor="middle" x="317.324" y="-264.8" font-family="Times,serif" font-size="14.00">/tokyo/cone_mask</text>
</g>
<!-- lag_debug -->
<g id="node5" class="node"><title>lag_debug</title>
<ellipse fill="lightgrey" stroke="black" cx="554" cy="-120" rx="132.308" ry="18"/>
<text text-anchor="middle" x="554" y="-115.8" font-family="Times,serif" font-size="14.00">/lab4/debug_cone_thresholder_lag</text>
</g>
<!-- cone_thresholder&#45;&gt;lag_debug -->
<g id="edge5" class="edge"><title>cone_thresholder&#45;&gt;lag_debug</title>
<path fill="none" stroke="black" d="M361.445,-297.511C415.306,-281.247 495.891,-248.507 540,-190 548.883,-178.217 552.502,-162.202 553.845,-148.567"/>
<polygon fill="black" stroke="black" points="557.358,-148.469 554.492,-138.269 550.372,-148.03 557.358,-148.469"/>
<text text-anchor="middle" x="666.611" y="-221.8" font-family="Times,serif" font-size="14.00">/lab4/cone_thresholder/debug/packet_entered_node</text>
</g>
<!-- swerve_driver -->
<g id="node4" class="node"><title>swerve_driver</title>
<ellipse fill="white" stroke="white" cx="185" cy="-120" rx="80.6576" ry="18"/>
<text text-anchor="middle" x="185" y="-115.8" font-family="Times,serif" font-size="14.00">/lab4/swerve_driver</text>
</g>
<!-- cone_locator&#45;&gt;swerve_driver -->
<g id="edge4" class="edge"><title>cone_locator&#45;&gt;swerve_driver</title>
<path fill="none" stroke="black" d="M196.075,-208.085C191.969,-202.704 188.094,-196.46 185.903,-190 181.425,-176.793 180.833,-161.33 181.518,-148.393"/>
<polygon fill="black" stroke="black" points="185.023,-148.475 182.338,-138.226 178.046,-147.913 185.023,-148.475"/>
<text text-anchor="middle" x="219.048" y="-178.8" font-family="Times,serif" font-size="14.00">/tokyo/cone</text>
</g>
<!-- cone_locator&#45;&gt;lag_debug -->
<g id="edge6" class="edge"><title>cone_locator&#45;&gt;lag_debug</title>
<path fill="none" stroke="black" d="M230.719,-208.382C245.519,-195.64 265.24,-179.638 274.889,-176 303.032,-165.39 380.449,-173.601 410,-168 441.987,-161.937 476.711,-150.747 504.046,-140.807"/>
<polygon fill="black" stroke="black" points="505.599,-143.964 513.764,-137.213 503.171,-137.399 505.599,-143.964"/>
<text text-anchor="middle" x="407.556" y="-178.8" font-family="Times,serif" font-size="14.00">/lab4/cone_locator/debug/packet_entered_node</text>
</g>
<!-- ros_out -->
<g id="node6" class="node"><title>ros_out</title>
<ellipse fill="lightgrey" stroke="black" cx="459" cy="-34" rx="36.775" ry="18"/>
<text text-anchor="middle" x="459" y="-29.8" font-family="Times,serif" font-size="14.00">ros_out</text>
</g>
<!-- lag_debug&#45;&gt;ros_out -->
<g id="edge7" class="edge"><title>lag_debug&#45;&gt;ros_out</title>
<path fill="none" stroke="black" d="M534.775,-102.001C520.093,-89.0195 499.745,-71.0272 483.831,-56.956"/>
<polygon fill="black" stroke="black" points="485.777,-54.0044 475.967,-50.0024 481.14,-59.2485 485.777,-54.0044"/>
<text text-anchor="middle" x="642.238" y="-72.8" font-family="Times,serif" font-size="14.00">/lab4a/cone_thresholder/debug/processing_lag</text>
</g>
</g>
</svg>
